<svg id="visual" viewBox="0 0 900 600" width="900" height="600" xmlns="http://www.w3.org/2000/svg" xmlns:xlink="http://www.w3.org/1999/xlink" version="1.1"><rect x="0" y="0" width="900" height="600" fill="#000"></rect><defs><linearGradient id="grad1_0" x1="33.3%" y1="0%" x2="100%" y2="100%"><stop offset="20%" stop-color="#000000" stop-opacity="1"></stop><stop offset="80%" stop-color="#000000" stop-opacity="1"></stop></linearGradient></defs><defs><linearGradient id="grad2_0" x1="0%" y1="0%" x2="66.7%" y2="100%"><stop offset="20%" stop-color="#000000" stop-opacity="1"></stop><stop offset="80%" stop-color="#000000" stop-opacity="1"></stop></linearGradient></defs><g transform="translate(900, 0)"><path d="M0 540.8C-52.6 489.1 -105.3 437.4 -173.4 418.5C-241.4 399.6 -325 413.4 -382.4 382.4C-439.9 351.4 -471.3 275.6 -493.4 204.4C-515.4 133.1 -528.1 66.6 -540.8 0L0 0Z" fill="#FB9E3A"></path></g><g transform="translate(0, 600)"><path d="M0 -540.8C52.6 -496.9 105.2 -453 180.6 -436.1C256 -419.1 354.3 -429.2 382.4 -382.4C410.6 -335.6 368.7 -232 383.4 -158.8C398.1 -85.6 469.5 -42.8 540.8 0L0 0Z" fill="#FB9E3A"></path></g></svg>